<svg width="200" height="200" viewBox="0 0 200 200" fill="none" xmlns="http://www.w3.org/2000/svg">
<path d="M48.045 167.632H152.728C163.244 167.632 171.772 159.107 171.772 148.589V51.0449C171.772 40.5269 163.244 32 152.728 32H48.045C37.54 32 29.024 40.502 29 51.002V148.637C29.023 159.134 37.54 167.632 48.045 167.632Z" fill="url(#paint0_linear_2866_1013)"/>
<path d="M48.0489 167.632H152.732C163.251 167.632 171.776 159.107 171.776 148.589V135.425C151.995 131.64 127.247 129.394 100.391 129.394C73.5349 129.394 48.7869 131.64 29.0039 135.425V148.636C29.0289 159.13 37.5469 167.632 48.0489 167.632Z" fill="url(#paint1_linear_2866_1013)"/>
<path d="M70.6249 152.374H130.15C136.103 152.351 140.918 147.519 140.918 141.563V86.1821C140.918 80.2131 136.077 75.3711 130.106 75.3711H70.672C64.7 75.3711 59.86 80.2131 59.86 86.1821V141.563C59.859 147.518 64.6749 152.35 70.6249 152.374Z" fill="#00E6E5"/>
<path d="M53.98 98.366H146.789V73.343H53.98V98.366Z" fill="url(#paint2_linear_2866_1013)"/>
<path d="M70.6249 152.374H130.15C136.103 152.351 140.918 147.519 140.918 141.563V131.184C128.285 130.024 114.635 129.393 100.391 129.393C86.147 129.393 72.493 130.023 59.86 131.184V141.563C59.859 147.518 64.6749 152.35 70.6249 152.374Z" fill="#14C6C1"/>
<path d="M96.7929 118.085V106.032H132.185V141.833H121.088V126.372L100.994 146.466L92.0449 137.524L111.488 118.085H96.7929Z" fill="#1934BF"/>
<path d="M37.4149 63.782V48.833C37.4149 47.667 38.4019 46.6831 39.5679 46.6831H57.1619C58.3279 46.6831 59.3119 47.667 59.3119 48.833V63.782C59.3119 64.951 58.3279 65.936 57.1619 65.936H39.5679C38.4019 65.936 37.4149 64.951 37.4149 63.782ZM63.1599 63.782V48.833C63.1599 47.667 64.1459 46.6831 65.3119 46.6831H161.206C162.372 46.6831 163.355 47.667 163.355 48.833V63.782C163.355 64.951 162.372 65.936 161.206 65.936H65.3119C64.1459 65.936 63.1599 64.951 63.1599 63.782Z" fill="#1934BF"/>
<defs>
<linearGradient id="paint0_linear_2866_1013" x1="26.8119" y1="119.702" x2="173.962" y2="79.932" gradientUnits="userSpaceOnUse">
<stop stop-color="#00DBDB"/>
<stop offset="0.7216" stop-color="#3647D3"/>
<stop offset="1" stop-color="#3647D3"/>
</linearGradient>
<linearGradient id="paint1_linear_2866_1013" x1="27.951" y1="144.873" x2="172.649" y2="154.664" gradientUnits="userSpaceOnUse">
<stop stop-color="#1B2BBB"/>
<stop offset="1" stop-color="#078DDD"/>
</linearGradient>
<linearGradient id="paint2_linear_2866_1013" x1="147.194" y1="75.0959" x2="53.5796" y2="96.6131" gradientUnits="userSpaceOnUse">
<stop stop-color="#03D1E1"/>
<stop offset="1" stop-color="#173FC1"/>
</linearGradient>
</defs>
</svg>
